<svg width="25" height="25" viewBox="0 0 25 25" fill="none" xmlns="http://www.w3.org/2000/svg">
<path d="M0.697071 5.42572C1.18611 4.2658 1.91637 3.22321 2.83933 2.36721C3.76229 1.51121 4.85683 0.861404 6.05024 0.460948C7.24365 0.060492 8.50861 -0.0814431 9.76109 0.0445706C11.0136 0.170584 12.2249 0.561662 13.3146 1.19183C14.4043 1.82199 15.3475 2.67681 16.0814 3.69952C16.8154 4.72222 17.3233 5.88938 17.5715 7.12348C17.8197 8.35758 17.8024 9.63036 17.5208 10.8573C17.2393 12.0842 16.6999 13.2372 15.9385 14.2396L23.8115 22.1126C23.9244 22.2246 24.014 22.3578 24.0752 22.5046C24.1365 22.6513 24.1682 22.8087 24.1685 22.9677C24.1688 23.1267 24.1377 23.2842 24.077 23.4312C24.0163 23.5781 23.9272 23.7116 23.8147 23.8241C23.7023 23.9365 23.5688 24.0257 23.4219 24.0864C23.2749 24.1472 23.1175 24.1783 22.9585 24.1781C22.7995 24.1778 22.6421 24.1462 22.4953 24.085C22.3486 24.0238 22.2153 23.9343 22.1033 23.8215L14.2302 15.9484C12.6729 17.1275 10.77 17.7598 8.81668 17.7472C6.86338 17.7346 4.9688 17.0779 3.42675 15.8789C1.8847 14.6799 0.781355 13.0056 0.287821 11.1156C-0.205715 9.22561 -0.0618629 7.22561 0.697071 5.42572ZM8.86918 15.3333C10.1463 15.3333 11.3947 14.9546 12.4565 14.2451C13.5184 13.5356 14.346 12.5271 14.8347 11.3473C15.3234 10.1674 15.4513 8.86911 15.2021 7.61657C14.953 6.36403 14.338 5.21349 13.435 4.31046C12.532 3.40743 11.3814 2.79246 10.1289 2.54331C8.87634 2.29416 7.57805 2.42203 6.39818 2.91075C5.21831 3.39947 4.20986 4.22708 3.50036 5.28894C2.79085 6.35079 2.41215 7.59919 2.41215 8.87627C2.4132 10.5885 3.09383 12.2302 4.30453 13.4409C5.51523 14.6516 7.15699 15.3323 8.86918 15.3333Z" fill="white"/>
</svg>
